<svg width="74" height="61" viewBox="0 0 74 61" fill="none" xmlns="http://www.w3.org/2000/svg">
<path d="M51.9562 55.2585H72.358C72.8641 49.86 72.2062 39.063 65.5259 39.063H51.1025C47.8486 39.063 45.9894 41.0185 44.9272 43.6903M51.9562 55.2585C52.0382 56.9637 51.9839 58.5821 51.8617 59.8857H23.015C23.015 58.5616 23.015 56.9481 23.1179 55.2585M51.9562 55.2585C51.6988 49.9023 50.0967 43.6903 45.0295 43.6903H44.9272M44.9272 43.6903H30.6062C29.9257 43.6903 29.3061 43.7758 28.7421 43.9356M28.7421 43.9356C27.7198 41.144 25.9477 39.063 23.015 39.063H8.5916C1.00037 39.063 1.00037 49.7058 1.00037 55.2585H23.1179M28.7421 43.9356C24.5151 45.1327 23.4079 50.4977 23.1179 55.2585M23.6514 26.7083C23.6514 31.7684 19.5131 35.8703 14.4082 35.8703C9.30328 35.8703 5.16494 31.7684 5.16494 26.7083C5.16494 21.6483 9.30328 17.5463 14.4082 17.5463C19.5131 17.5463 23.6514 21.6483 23.6514 26.7083ZM46.7596 31.2893C46.7596 36.3493 42.6212 40.4513 37.5163 40.4513C32.4114 40.4513 28.2731 36.3493 28.2731 31.2893C28.2731 26.2293 32.4114 22.1273 37.5163 22.1273C42.6212 22.1273 46.7596 26.2293 46.7596 31.2893ZM68.3271 26.7083C68.3271 31.7684 64.1888 35.8703 59.0839 35.8703C53.979 35.8703 49.8406 31.7684 49.8406 26.7083C49.8406 21.6483 53.979 17.5463 59.0839 17.5463C64.1888 17.5463 68.3271 21.6483 68.3271 26.7083ZM35.0308 7.12268H28.6657C28.6172 7.12268 28.597 7.18482 28.6363 7.21336L33.7857 10.9546C33.8032 10.9674 33.8106 10.99 33.8039 11.0107L31.837 17.0642C31.822 17.1103 31.8748 17.1487 31.9141 17.1202L37.0635 13.3789C37.0811 13.3662 37.1049 13.3662 37.1225 13.3789L42.2719 17.1202C42.3112 17.1487 42.364 17.1103 42.349 17.0642L40.3821 11.0107C40.3754 10.99 40.3828 10.9674 40.4003 10.9546L45.5497 7.21336C45.589 7.18482 45.5688 7.12268 45.5203 7.12268H39.1553C39.1335 7.12268 39.1143 7.10869 39.1076 7.08804L37.1407 1.03455C37.1257 0.988362 37.0603 0.988362 37.0453 1.03455L35.0784 7.08804C35.0717 7.10869 35.0525 7.12268 35.0308 7.12268Z" stroke="url(#paint0_linear_6488_2742)" stroke-width="1.95867"/>
<defs>
<linearGradient id="paint0_linear_6488_2742" x1="1.00037" y1="9.28073" x2="60.5102" y2="71.3696" gradientUnits="userSpaceOnUse">
<stop stop-color="#1E74EC"/>
<stop offset="1" stop-color="#002984"/>
</linearGradient>
</defs>
</svg>
