<svg width="52" height="53" viewBox="0 0 52 53" fill="none" xmlns="http://www.w3.org/2000/svg">
<path d="M8.50024 43.5005L26.5002 25.5005M12.0002 47.0005L30.0002 29.0005M31.0002 22.0005L42.0002 11.0005V6.50049L48.5002 4.50049L51.0002 7.00049L49.0002 13.5005H44.0002L33.5002 24.5005L36.5002 27.5005L13.5002 51.0005C13.5002 51.0005 10.3391 52.1572 8.50024 51.5005C6.15975 50.6646 4.78616 49.3582 4.00024 47.0005C3.44452 45.3333 4.00024 42.5005 4.00024 42.5005L27.5002 19.0005L31.0002 22.0005ZM8.00024 15.5005H15.5002V8.50049L9.50024 1.50049H17.0002C17.0002 1.50049 23.8513 5.529 25.5002 9.50049C26.848 12.7465 25.5002 18.5005 25.5002 18.5005L27.0002 19.5005L19.5002 27.0005L17.5002 25.0005C17.5002 25.0005 13.13 25.747 10.5002 25.0005C5.58401 23.6048 1.50024 15.5005 1.50024 15.5005V9.50049L8.00024 15.5005ZM28.5002 36.0005L42.0002 49.5005C42.0002 49.5005 47.4463 51.0976 49.5002 49.0005C51.2973 47.1657 50.5002 42.5005 50.5002 42.5005L36.0002 28.0005L28.5002 36.0005Z" stroke="url(#paint0_linear_117_5409)" stroke-width="2" stroke-linecap="round" stroke-linejoin="round"/>
<defs>
<linearGradient id="paint0_linear_117_5409" x1="1.50024" y1="8.56011" x2="51.591" y2="51.0051" gradientUnits="userSpaceOnUse">
<stop stop-color="#1E74EC"/>
<stop offset="1" stop-color="#002984"/>
</linearGradient>
</defs>
</svg>
